<mxfile host="app.diagrams.net" agent="Mozilla/5.0 (Windows NT 10.0; Win64; x64) AppleWebKit/537.36 (KHTML, like Gecko) Chrome/127.0.0.0 Safari/537.36" version="24.7.7">
  <diagram name="페이지-1" id="NL-uPgkLJpRLXFsk2qBk">
    <mxGraphModel dx="1434" dy="772" grid="1" gridSize="10" guides="1" tooltips="1" connect="1" arrows="1" fold="1" page="1" pageScale="1" pageWidth="827" pageHeight="1169" math="0" shadow="0">
      <root>
        <mxCell id="0" />
        <mxCell id="1" parent="0" />
        <mxCell id="ASu3vxtZhupJpxGeAhaY-1" value="구매자" style="shape=umlActor;verticalLabelPosition=bottom;verticalAlign=top;html=1;outlineConnect=0;" vertex="1" parent="1">
          <mxGeometry x="40" y="170" width="60" height="140" as="geometry" />
        </mxCell>
        <mxCell id="ASu3vxtZhupJpxGeAhaY-2" value="판매자" style="shape=umlActor;verticalLabelPosition=bottom;verticalAlign=top;html=1;outlineConnect=0;" vertex="1" parent="1">
          <mxGeometry x="30" y="760" width="60" height="140" as="geometry" />
        </mxCell>
        <mxCell id="ASu3vxtZhupJpxGeAhaY-4" value="일반 구매" style="ellipse;whiteSpace=wrap;html=1;" vertex="1" parent="1">
          <mxGeometry x="110" y="90" width="140" height="110" as="geometry" />
        </mxCell>
        <mxCell id="ASu3vxtZhupJpxGeAhaY-5" value="회원 관리" style="ellipse;whiteSpace=wrap;html=1;" vertex="1" parent="1">
          <mxGeometry x="570" y="390" width="140" height="80" as="geometry" />
        </mxCell>
        <mxCell id="ASu3vxtZhupJpxGeAhaY-6" value="&lt;h1 style=&quot;margin-top: 0px;&quot;&gt;Heading&lt;/h1&gt;&lt;p&gt;Lorem ipsum dolor sit amet, consectetur adipisicing elit, sed do eiusmod tempor incididunt ut labore et dolore magna aliqua.&lt;/p&gt;" style="text;html=1;whiteSpace=wrap;overflow=hidden;rounded=0;" vertex="1" parent="1">
          <mxGeometry x="590" y="40" width="180" height="120" as="geometry" />
        </mxCell>
        <mxCell id="ASu3vxtZhupJpxGeAhaY-7" value="온라인 서점" style="text;html=1;align=center;verticalAlign=middle;whiteSpace=wrap;rounded=0;" vertex="1" parent="1">
          <mxGeometry x="310" y="10" width="140" height="30" as="geometry" />
        </mxCell>
        <mxCell id="ASu3vxtZhupJpxGeAhaY-10" value="관리자" style="shape=umlActor;verticalLabelPosition=bottom;verticalAlign=top;html=1;outlineConnect=0;" vertex="1" parent="1">
          <mxGeometry x="730" y="490" width="60" height="140" as="geometry" />
        </mxCell>
        <mxCell id="ASu3vxtZhupJpxGeAhaY-11" value="상품 등록" style="ellipse;whiteSpace=wrap;html=1;" vertex="1" parent="1">
          <mxGeometry x="40" y="550" width="140" height="110" as="geometry" />
        </mxCell>
        <mxCell id="ASu3vxtZhupJpxGeAhaY-12" value="상품 삭제" style="ellipse;whiteSpace=wrap;html=1;" vertex="1" parent="1">
          <mxGeometry x="190" y="740" width="140" height="80" as="geometry" />
        </mxCell>
        <mxCell id="ASu3vxtZhupJpxGeAhaY-13" value="상품 수정" style="ellipse;whiteSpace=wrap;html=1;" vertex="1" parent="1">
          <mxGeometry x="180" y="620" width="140" height="90" as="geometry" />
        </mxCell>
        <mxCell id="ASu3vxtZhupJpxGeAhaY-14" value="커뮤니티" style="ellipse;whiteSpace=wrap;html=1;" vertex="1" parent="1">
          <mxGeometry x="130" y="310" width="140" height="110" as="geometry" />
        </mxCell>
        <mxCell id="ASu3vxtZhupJpxGeAhaY-15" value="중고 거래" style="ellipse;whiteSpace=wrap;html=1;" vertex="1" parent="1">
          <mxGeometry x="210" y="185" width="140" height="110" as="geometry" />
        </mxCell>
        <mxCell id="ASu3vxtZhupJpxGeAhaY-16" value="환불" style="ellipse;whiteSpace=wrap;html=1;" vertex="1" parent="1">
          <mxGeometry x="130" y="980" width="140" height="100" as="geometry" />
        </mxCell>
        <mxCell id="ASu3vxtZhupJpxGeAhaY-17" value="이벤트 관리" style="ellipse;whiteSpace=wrap;html=1;" vertex="1" parent="1">
          <mxGeometry x="510" y="500" width="140" height="85" as="geometry" />
        </mxCell>
        <mxCell id="ASu3vxtZhupJpxGeAhaY-18" value="게시판 관리" style="ellipse;whiteSpace=wrap;html=1;" vertex="1" parent="1">
          <mxGeometry x="530" y="600" width="140" height="90" as="geometry" />
        </mxCell>
        <mxCell id="ASu3vxtZhupJpxGeAhaY-19" value="이벤트 요청" style="ellipse;whiteSpace=wrap;html=1;" vertex="1" parent="1">
          <mxGeometry x="170" y="880" width="140" height="85" as="geometry" />
        </mxCell>
        <mxCell id="ASu3vxtZhupJpxGeAhaY-20" value="도서 관리" style="ellipse;whiteSpace=wrap;html=1;" vertex="1" parent="1">
          <mxGeometry x="590" y="710" width="140" height="90" as="geometry" />
        </mxCell>
      </root>
    </mxGraphModel>
  </diagram>
</mxfile>
